<svg width="31" height="30" viewBox="0 0 31 30" fill="none" xmlns="http://www.w3.org/2000/svg">
<path d="M7.52694 24.8492L5.66608 8.97144C5.53965 7.89267 4.62555 7.07944 3.53939 7.07944C3.06655 7.07944 2.75576 6.58586 2.9601 6.15946L3.66174 4.6953C3.93859 4.1176 4.52237 3.75 5.16298 3.75H23.2051C23.741 3.75 24.2441 4.00795 24.5568 4.44307L25.8847 6.29036C26.1217 6.61999 25.8861 7.07944 25.4801 7.07944C24.6619 7.07944 23.9655 7.67542 23.8392 8.48388L21.264 24.9632C21.0359 26.4235 19.778 27.5 18.3 27.5H10.5065C8.98478 27.5 7.70407 26.3606 7.52694 24.8492Z" stroke="#8F877C" stroke-width="2.5"/>
<path d="M17.6442 15.625C17.6442 17.3419 16.2391 18.75 14.4856 18.75C12.7321 18.75 11.3269 17.3419 11.3269 15.625C11.3269 13.9081 12.7321 12.5 14.4856 12.5C16.2391 12.5 17.6442 13.9081 17.6442 15.625Z" stroke="#8F877C" stroke-width="2.5"/>
</svg>
