<svg width="31" height="30" viewBox="0 0 31 30" fill="none" xmlns="http://www.w3.org/2000/svg">
<path d="M27.7115 12.0875C27.632 11.8589 27.4873 11.658 27.295 11.5094C27.1027 11.3607 26.8711 11.2706 26.6283 11.25L19.4611 10.2125L16.249 3.75C16.1459 3.53866 15.9849 3.36043 15.7844 3.23572C15.5839 3.111 15.352 3.04486 15.1154 3.04486C14.8788 3.04486 14.6469 3.111 14.4464 3.23572C14.2459 3.36043 14.0849 3.53866 13.9817 3.75L10.7697 10.2L3.6025 11.25C3.36937 11.2829 3.1502 11.38 2.96986 11.5302C2.78952 11.6804 2.65522 11.8778 2.58221 12.1C2.51538 12.3171 2.50939 12.5481 2.56487 12.7684C2.62034 12.9886 2.7352 13.1897 2.89712 13.35L8.09933 18.35L6.83971 25.45C6.79475 25.6843 6.81829 25.9266 6.90757 26.1481C6.99685 26.3696 7.14814 26.5611 7.34356 26.7C7.53404 26.8351 7.7587 26.9149 7.99232 26.9304C8.22595 26.9458 8.45929 26.8963 8.66616 26.7875L15.1154 23.45L21.5394 26.8C21.7162 26.899 21.9159 26.9507 22.1188 26.95C22.3857 26.9509 22.6459 26.8678 22.862 26.7125C23.0574 26.5736 23.2087 26.3821 23.298 26.1606C23.3873 25.9391 23.4108 25.6968 23.3659 25.4625L22.1063 18.3625L27.3085 13.3625C27.4903 13.2096 27.6247 13.0086 27.6961 12.7829C27.7674 12.5572 27.7728 12.3161 27.7115 12.0875ZM19.9649 17.0875C19.8172 17.2293 19.7067 17.4048 19.643 17.5987C19.5793 17.7926 19.5644 17.9991 19.5996 18.2L20.5065 23.4375L15.7704 20.9375C15.5881 20.8412 15.3848 20.7908 15.1784 20.7908C14.9719 20.7908 14.7686 20.8412 14.5863 20.9375L9.85019 23.4375L10.7571 18.2C10.7923 17.9991 10.7774 17.7926 10.7137 17.5987C10.6501 17.4048 10.5396 17.2293 10.3918 17.0875L6.61298 13.3375L11.916 12.575C12.12 12.5468 12.314 12.4694 12.4809 12.3496C12.6478 12.2297 12.7825 12.071 12.8733 11.8875L15.1154 7.125L17.4835 11.9C17.5742 12.0835 17.7089 12.2422 17.8758 12.3621C18.0427 12.4819 18.2367 12.5593 18.4408 12.5875L23.7438 13.35L19.9649 17.0875Z" fill="#311F1C"/>
</svg>
