<svg width="31" height="30" viewBox="0 0 31 30" fill="none" xmlns="http://www.w3.org/2000/svg">
<path d="M22.6731 5.60001C20.6687 3.61089 17.9501 2.49341 15.1154 2.49341C12.2807 2.49341 9.56212 3.61089 7.5577 5.60001C5.55327 7.58913 4.4272 10.287 4.4272 13.1C4.4272 15.9131 5.55327 18.6109 7.5577 20.6L14.1959 27.2C14.313 27.3172 14.4523 27.4102 14.6058 27.4736C14.7593 27.5371 14.9239 27.5698 15.0902 27.5698C15.2565 27.5698 15.4211 27.5371 15.5746 27.4736C15.7281 27.4102 15.8674 27.3172 15.9845 27.2L22.6731 20.5375C24.6691 18.5567 25.7905 15.8701 25.7905 13.0688C25.7905 10.2674 24.6691 7.58086 22.6731 5.60001ZM20.8718 18.75L15.1154 24.4875L9.35895 18.75C8.2217 17.6204 7.44745 16.1816 7.13408 14.6154C6.82071 13.0492 6.98229 11.4259 7.59839 9.95086C8.21449 8.47578 9.25744 7.21507 10.5954 6.32811C11.9334 5.44114 13.5063 4.96774 15.1154 4.96774C16.7244 4.96774 18.2974 5.44114 19.6354 6.32811C20.9733 7.21507 22.0163 8.47578 22.6324 9.95086C23.2485 11.4259 23.4101 13.0492 23.0967 14.6154C22.7833 16.1816 22.0091 17.6204 20.8718 18.75ZM11.3365 9.26251C10.3197 10.2747 9.74867 11.6457 9.74867 13.075C9.74867 14.5043 10.3197 15.8753 11.3365 16.8875C12.092 17.6385 13.0541 18.1514 14.1022 18.3618C15.1503 18.5722 16.2376 18.4707 17.2279 18.0702C18.2181 17.6697 19.067 16.9879 19.6682 16.1103C20.2695 15.2328 20.5961 14.1986 20.6073 13.1375C20.613 12.429 20.4755 11.7266 20.2029 11.0717C19.9303 10.4169 19.5281 9.82296 19.0202 9.32501C18.521 8.81823 17.9257 8.41443 17.2686 8.13684C16.6115 7.85925 15.9056 7.71335 15.1915 7.70755C14.4773 7.70174 13.7691 7.83613 13.1075 8.10299C12.4459 8.36986 11.8441 8.76392 11.3365 9.26251ZM17.2441 15.1125C16.7668 15.5934 16.1359 15.8949 15.4594 15.9653C14.7829 16.0358 14.1027 15.8708 13.5352 15.4987C12.9677 15.1265 12.548 14.5703 12.348 13.9251C12.148 13.2799 12.18 12.5858 12.4387 11.9615C12.6973 11.3371 13.1664 10.8213 13.7658 10.5022C14.3653 10.1831 15.0578 10.0805 15.725 10.212C16.3922 10.3435 16.9926 10.701 17.4236 11.2232C17.8547 11.7454 18.0896 12.4 18.0881 13.075C18.0698 13.8466 17.7436 14.5794 17.1812 15.1125H17.2441Z" fill="#8F877C"/>
</svg>
