<svg width="31" height="30" viewBox="0 0 31 30" fill="none" xmlns="http://www.w3.org/2000/svg">
<path d="M8.81731 18.75H12.5962C12.9302 18.75 13.2506 18.6183 13.4868 18.3839C13.7231 18.1495 13.8558 17.8315 13.8558 17.5C13.8558 17.1685 13.7231 16.8505 13.4868 16.6161C13.2506 16.3817 12.9302 16.25 12.5962 16.25H8.81731C8.48324 16.25 8.16285 16.3817 7.92663 16.6161C7.69041 16.8505 7.5577 17.1685 7.5577 17.5C7.5577 17.8315 7.69041 18.1495 7.92663 18.3839C8.16285 18.6183 8.48324 18.75 8.81731 18.75ZM23.9327 6.25H6.29808C5.29587 6.25 4.3347 6.64509 3.62603 7.34835C2.91736 8.05161 2.51923 9.00544 2.51923 10V21.25C2.51923 22.2446 2.91736 23.1984 3.62603 23.9017C4.3347 24.6049 5.29587 25 6.29808 25H23.9327C24.9349 25 25.8961 24.6049 26.6047 23.9017C27.3134 23.1984 27.7115 22.2446 27.7115 21.25V10C27.7115 9.00544 27.3134 8.05161 26.6047 7.34835C25.8961 6.64509 24.9349 6.25 23.9327 6.25ZM25.1923 21.25C25.1923 21.5815 25.0596 21.8995 24.8234 22.1339C24.5872 22.3683 24.2668 22.5 23.9327 22.5H6.29808C5.96401 22.5 5.64362 22.3683 5.4074 22.1339C5.17117 21.8995 5.03846 21.5815 5.03846 21.25V13.75H25.1923V21.25ZM25.1923 11.25H5.03846V10C5.03846 9.66848 5.17117 9.35054 5.4074 9.11612C5.64362 8.8817 5.96401 8.75 6.29808 8.75H23.9327C24.2668 8.75 24.5872 8.8817 24.8234 9.11612C25.0596 9.35054 25.1923 9.66848 25.1923 10V11.25Z" fill="#8F877C"/>
</svg>
